<svg id="Layer_2" data-name="Layer 2" xmlns="http://www.w3.org/2000/svg" viewBox="0 0 54.13 78.2"><defs><style>.cls-1{fill:#136878;}</style></defs><title>hammer</title><path class="cls-1" d="M331.25,1218.21a20.5,20.5,0,0,0-2.43-.78,2.85,2.85,0,0,0-3.23,1.5,0.69,0.69,0,0,1-.32.3,4.53,4.53,0,0,1-5.79-1.46c-0.69-.91-1.29-1.89-1.95-2.83a3.23,3.23,0,0,0-1.76-1.46c-3.33-.91-6.64-1.84-10-2.73-4.66-1.24-23,6.84-26.39,11.54-0.61.84-.23,0.59,0.17,0.4a28.17,28.17,0,0,1,4.65-1.66,25.33,25.33,0,0,1,12.56-.31,5.16,5.16,0,0,1,2.15,1.1,3.43,3.43,0,0,1,1.23,3.61c-0.25,1.08-7.1,26-10.29,37.18l-5.35,18.7a4.58,4.58,0,0,0-.1,2.34c0.05,0.23.11,0.45,0.17,0.68l0.6,1,0.2,0.2a3.81,3.81,0,0,0,1.76,1.2c2.23,0.66,4.46,1.34,6.71,1.93a4.31,4.31,0,0,0,5.26-3.3c0.25-1.17.51-2.33,0.77-3.49l4.19-18.88c1.86-8.37,7.34-33.18,7.61-34.2a3.14,3.14,0,0,1,1.07-1.59,5.12,5.12,0,0,1,2-1,8.38,8.38,0,0,1,5,.31,5,5,0,0,1,2.23,1.37,1.72,1.72,0,0,1,.47,1.75,1.16,1.16,0,0,0,.12.74,3.3,3.3,0,0,0,2.08,1.75c0.68,0.23,1.37.43,2.06,0.64a3.21,3.21,0,0,0,4.13-2.26q1.14-4.19,2.23-8.39A3.23,3.23,0,0,0,331.25,1218.21Z" transform="translate(-279.1 -1210.63)"/></svg>