<svg id="Layer_2" data-name="Layer 2" xmlns="http://www.w3.org/2000/svg" viewBox="0 0 124.87 77.22"><title>logo-black</title><path d="M100.28,32a17.1,17.1,0,0,0-3.91-4.8l0,0,0-.05-0.06,0a19.16,19.16,0,0,0-12.35-4.43c-10.12,0-18.36,7.61-18.36,17s8.23,17,18.36,17c9.3,0,17.18-6.55,18.23-15,2.24,7.21,2.5,15.35.59,20-0.46,1.12-1.26,2.52-2.45,2.83-1.48.26-4.89-.24-11.13-6.44a0.14,0.14,0,0,0-.13,0,21.91,21.91,0,0,1-2.4.44,0.13,0.13,0,0,0-.11.08,0.12,0.12,0,0,0,0,.12c1.1,1.15,2.21,2.21,3.3,3.15,3.79,3.28,7.09,4.95,9.82,4.95a6.28,6.28,0,0,0,1.14-.1l0.07,0c1.73-.43,3.15-1.88,4.1-4.19,2.77-6.75,1.54-20.87-4.66-30.34m-21,7.72A4.61,4.61,0,1,1,83.84,44a4.43,4.43,0,0,1-4.59-4.25M88.5,44.5a6.2,6.2,0,0,0,2.31-4.78,7,7,0,0,0-14,0,6.38,6.38,0,0,0,3.88,5.77l0,0a13.73,13.73,0,0,0,5.94,1.35c6.58,0,12-4.57,12.75-10.52a13.67,13.67,0,0,1,.41,3.3c0,8.14-7.17,14.76-16,14.76s-16-6.62-16-14.76,7.17-14.76,16-14.76a16.68,16.68,0,0,1,10.73,3.83A9.23,9.23,0,0,1,97.16,35a9.92,9.92,0,0,1-8.65,9.5" transform="translate(-25.93 -22.66)"/><path d="M38.16,80H33.59a0.64,0.64,0,0,0-.68.62v0.9a0.64,0.64,0,0,0,.68.62h2.57a0.35,0.35,0,0,1,.35.38V85a0.63,0.63,0,0,1-.42.75,5.73,5.73,0,0,1-2.1.35,5.3,5.3,0,1,1,0-10.57,6.42,6.42,0,0,1,2.64.59,0.8,0.8,0,0,0,1-.21l0.48-.78a0.61,0.61,0,0,0-.24-0.85A8.09,8.09,0,0,0,34,73.4c-4.44,0-8,3.34-8,7.44s3.61,7.44,8,7.44A8.49,8.49,0,0,0,38.58,87a0.58,0.58,0,0,0,.25-0.48V80.64A0.66,0.66,0,0,0,38.16,80" transform="translate(-25.93 -22.66)"/><path d="M51.71,87.89a0.6,0.6,0,0,0,0-.61l-1.82-3.47a0.63,0.63,0,0,1,.29-0.94,4.38,4.38,0,0,0,2.3-4c0-3.45-2.79-5.27-8.07-5.27H41.85a0.64,0.64,0,0,0-.68.65V87.46a0.66,0.66,0,0,0,.68.63h1a0.66,0.66,0,0,0,.68-0.62v-3a0.34,0.34,0,0,1,.3-0.34h0.57a22.83,22.83,0,0,0,2.43-.14,0.69,0.69,0,0,1,.54.09l1.92,3.69a0.78,0.78,0,0,0,.72.36h1.22a0.58,0.58,0,0,0,.5-0.19m-1.61-9.06c0,1.41-1,3.09-5.72,3.09H43.83a0.34,0.34,0,0,1-.32-0.38V76.06a0.34,0.34,0,0,1,.35-0.32h0.52c2.61,0,5.72.54,5.72,3.09" transform="translate(-25.93 -22.66)"/><path d="M64.48,87.46v-0.9a0.66,0.66,0,0,0-.68-0.62H57a0.32,0.32,0,0,1-.32-0.32V82.49a0.32,0.32,0,0,1,.3-0.32H63.8a0.66,0.66,0,0,0,.68-0.62v-0.9A0.66,0.66,0,0,0,63.8,80H57a0.36,0.36,0,0,1-.3-0.4v-3.5a0.36,0.36,0,0,1,.3-0.38H63.8a0.68,0.68,0,0,0,.68-0.65V74.21a0.66,0.66,0,0,0-.68-0.65H55.05a0.64,0.64,0,0,0-.68.65V87.46a0.66,0.66,0,0,0,.68.63H63.8a0.66,0.66,0,0,0,.68-0.62" transform="translate(-25.93 -22.66)"/><path d="M78.74,87.29L73.67,73.95A0.74,0.74,0,0,0,73,73.56H71.76a0.79,0.79,0,0,0-.69.4L66,87.29a0.63,0.63,0,0,0,.08.6,0.46,0.46,0,0,0,.37.19h1a0.86,0.86,0,0,0,.92-0.42l3.85-10a0.23,0.23,0,0,1,.21-0.14h0a0.14,0.14,0,0,1,.14.1L76.4,87.66a0.8,0.8,0,0,0,.84.42h1a0.48,0.48,0,0,0,.41-0.19,0.63,0.63,0,0,0,0-.6" transform="translate(-25.93 -22.66)"/><path d="M85.09,87.46V76.06a0.33,0.33,0,0,1,.32-0.32h3.44a0.68,0.68,0,0,0,.68-0.65V74.21a0.66,0.66,0,0,0-.68-0.65H79a0.64,0.64,0,0,0-.68.65v0.88a0.65,0.65,0,0,0,.68.65h3.46a0.38,0.38,0,0,1,.3.38V87.46a0.66,0.66,0,0,0,.68.63h1a0.66,0.66,0,0,0,.68-0.62" transform="translate(-25.93 -22.66)"/><path d="M105.16,80.79c-0.22-.16-0.21-0.25-0.11-0.37a4.08,4.08,0,0,0,1-2.69c0-2.8-2.06-4.16-6.31-4.16H96.58a0.66,0.66,0,0,0-.68.65V87.46a0.64,0.64,0,0,0,.68.63h3.83c4.25,0,6.31-1.36,6.31-4.16a3.66,3.66,0,0,0-1.55-3.13m-6.93,1.44a0.32,0.32,0,0,1,.32-0.32h1.85c3.5,0,4,1,4,2s-0.48,2-4,2H98.53a0.36,0.36,0,0,1-.3-0.4v-3.3ZM100,79.74H98.56a0.3,0.3,0,0,1-.32-0.3V76.12a0.35,0.35,0,0,1,.32-0.38h1.2c3.5,0,4,1,4,2s-0.45,2-3.72,2" transform="translate(-25.93 -22.66)"/><path d="M120.32,87.29l-5.07-13.35a0.74,0.74,0,0,0-.67-0.38h-1.24a0.79,0.79,0,0,0-.69.4l-5.07,13.33a0.63,0.63,0,0,0,.08.6,0.46,0.46,0,0,0,.37.19h1a0.86,0.86,0,0,0,.92-0.42l3.85-10a0.23,0.23,0,0,1,.21-0.14h0a0.14,0.14,0,0,1,.14.1L118,87.66a0.8,0.8,0,0,0,.84.42h1a0.48,0.48,0,0,0,.41-0.19,0.63,0.63,0,0,0,0-.6" transform="translate(-25.93 -22.66)"/><path d="M127.12,79.63c-1.8-.42-3.35-0.79-3.35-2,0-1,.74-2.15,2.83-2.15s2.83,1.1,2.83,2.13a0.66,0.66,0,0,0,.68.62h1a0.66,0.66,0,0,0,.68-0.62A3.85,3.85,0,0,0,130,74.39a6.07,6.07,0,0,0-3.42-1,6.3,6.3,0,0,0-3.39,1,3.86,3.86,0,0,0-1.79,3.31c0,2.8,2.7,3.42,5.09,4,1.79,0.41,3.33.76,3.33,1.95,0,0.95-.69,2.55-3.26,2.55-2.38,0-3.26-1.55-3.26-2.53a0.66,0.66,0,0,0-.68-0.62h-1a0.66,0.66,0,0,0-.68.63c0,3.08,2.8,4.68,5.57,4.68s5.64-1.62,5.64-4.7c0-2.74-2.7-3.38-5.09-3.94" transform="translate(-25.93 -22.66)"/><path d="M135.88,73.56h-1a0.64,0.64,0,0,0-.68.65V87.46a0.66,0.66,0,0,0,.68.63h1a0.66,0.66,0,0,0,.68-0.62V74.21a0.64,0.64,0,0,0-.68-0.65" transform="translate(-25.93 -22.66)"/><path d="M150.13,73.56h-1a0.64,0.64,0,0,0-.68.65v8.9a0.43,0.43,0,0,1-.11.4,0.22,0.22,0,0,1-.17-0.1l-6.9-9.49a0.76,0.76,0,0,0-.63-0.35h-1a0.64,0.64,0,0,0-.68.65V87.46a0.66,0.66,0,0,0,.68.63h1a0.66,0.66,0,0,0,.68-0.62V78.59a0.38,0.38,0,0,1,.14-0.38,0.18,0.18,0,0,1,.16,0l6.92,9.53a0.78,0.78,0,0,0,.7.3h0.87a0.66,0.66,0,0,0,.68-0.62V74.21a0.64,0.64,0,0,0-.68-0.65" transform="translate(-25.93 -22.66)"/><path d="M54.73,94.41H54.57a0.26,0.26,0,0,0-.26.24v2h-3v-2A0.25,0.25,0,0,0,51,94.41H50.88a0.25,0.25,0,0,0-.26.24V99.5a0.26,0.26,0,0,0,.26.24H51a0.25,0.25,0,0,0,.26-0.24V97.3h3V99.5a0.26,0.26,0,0,0,.26.24h0.16A0.26,0.26,0,0,0,55,99.5V94.65a0.26,0.26,0,0,0-.26-0.24" transform="translate(-25.93 -22.66)"/><path d="M61.61,95.06a2.89,2.89,0,0,0-.94-0.58,3.42,3.42,0,0,0-2.36,0,2.86,2.86,0,0,0-.94.58,2.67,2.67,0,0,0-.62.89,2.94,2.94,0,0,0,0,2.24,2.68,2.68,0,0,0,.62.89,2.86,2.86,0,0,0,.94.59,3.39,3.39,0,0,0,2.35,0,2.87,2.87,0,0,0,.94-0.59,2.69,2.69,0,0,0,.62-0.89,2.94,2.94,0,0,0,0-2.24,2.69,2.69,0,0,0-.62-0.89m-3.05,4a2.17,2.17,0,0,1-.71-0.46,2,2,0,0,1-.46-0.69,2.26,2.26,0,0,1-.16-0.86,2.21,2.21,0,0,1,.17-0.86,2.08,2.08,0,0,1,.47-0.69,2.2,2.2,0,0,1,.72-0.46,2.59,2.59,0,0,1,1.83,0,2.19,2.19,0,0,1,.72.46,2.09,2.09,0,0,1,.47.69,2.21,2.21,0,0,1,.17.86,2.26,2.26,0,0,1-.16.86,2,2,0,0,1-.46.69,2.16,2.16,0,0,1-.71.46,2.68,2.68,0,0,1-1.86,0" transform="translate(-25.93 -22.66)"/><path d="M69.39,94.41H69.1a0.27,0.27,0,0,0-.24.14l-2,4.14-2-4.14a0.26,0.26,0,0,0-.24-0.14H64.25a0.26,0.26,0,0,0-.26.24V99.5a0.26,0.26,0,0,0,.26.24h0.16a0.26,0.26,0,0,0,.26-0.24V95.9l1.83,3.7a0.27,0.27,0,0,0,.24.14h0.13a0.27,0.27,0,0,0,.24-0.14L69,95.88V99.5a0.26,0.26,0,0,0,.26.24h0.16a0.26,0.26,0,0,0,.26-0.24V94.65a0.26,0.26,0,0,0-.26-0.24" transform="translate(-25.93 -22.66)"/><path d="M74.88,99.12H72.13V97.3h2.46a0.25,0.25,0,0,0,.26-0.24V96.92a0.26,0.26,0,0,0-.26-0.24H72.13V95h2.63A0.25,0.25,0,0,0,75,94.79V94.65a0.25,0.25,0,0,0-.26-0.24H71.7a0.26,0.26,0,0,0-.26.24V99.5a0.25,0.25,0,0,0,.26.24h3.18a0.25,0.25,0,0,0,.26-0.24V99.36a0.25,0.25,0,0,0-.26-0.24" transform="translate(-25.93 -22.66)"/><path d="M82,97.25A2.61,2.61,0,0,0,81.43,97l-0.64-.21-0.46-.16A1.46,1.46,0,0,1,80,96.4a0.8,0.8,0,0,1-.23-0.25,0.73,0.73,0,0,1-.08-0.36,0.74,0.74,0,0,1,.09-0.38A0.83,0.83,0,0,1,80,95.13,1.27,1.27,0,0,1,80.4,95a1.65,1.65,0,0,1,1,.05,1.13,1.13,0,0,1,.43.3,0.27,0.27,0,0,0,.18.09,0.28,0.28,0,0,0,.2-0.06l0.13-.1a0.23,0.23,0,0,0,0-.34,1.76,1.76,0,0,0-.69-0.47,2.49,2.49,0,0,0-1.56-.06,2,2,0,0,0-.6.29,1.44,1.44,0,0,0-.42.48,1.33,1.33,0,0,0-.16.65,1.4,1.4,0,0,0,.13.63,1.33,1.33,0,0,0,.37.45,2.14,2.14,0,0,0,.54.3q0.28,0.11.62,0.21l0.5,0.16a1.74,1.74,0,0,1,.39.2,1,1,0,0,1,.26.26,0.62,0.62,0,0,1,.09.34,0.82,0.82,0,0,1-.09.39,0.83,0.83,0,0,1-.24.28,1.25,1.25,0,0,1-.38.18A1.83,1.83,0,0,1,80,99.13a1.56,1.56,0,0,1-.56-0.36,0.28,0.28,0,0,0-.37,0l-0.13.1a0.24,0.24,0,0,0-.09.17,0.23,0.23,0,0,0,.07.18,2.18,2.18,0,0,0,.76.5,2.69,2.69,0,0,0,1,.18,2.46,2.46,0,0,0,.69-0.1,1.77,1.77,0,0,0,.6-0.3A1.52,1.52,0,0,0,82.41,99a1.38,1.38,0,0,0,.16-0.66,1.28,1.28,0,0,0-.15-0.64A1.35,1.35,0,0,0,82,97.25" transform="translate(-25.93 -22.66)"/><path d="M88.93,95.06A2.87,2.87,0,0,0,88,94.48a3.42,3.42,0,0,0-2.36,0,2.88,2.88,0,0,0-.94.58,2.68,2.68,0,0,0-.62.89,2.94,2.94,0,0,0,0,2.24,2.68,2.68,0,0,0,.62.89,2.86,2.86,0,0,0,.94.59,3.39,3.39,0,0,0,2.35,0,2.87,2.87,0,0,0,.94-0.59,2.69,2.69,0,0,0,.62-0.89,2.93,2.93,0,0,0,0-2.24,2.67,2.67,0,0,0-.62-0.89m-3,4a2.16,2.16,0,0,1-.71-0.46,2,2,0,0,1-.46-0.69,2.26,2.26,0,0,1-.16-0.86,2.21,2.21,0,0,1,.17-0.86,2.08,2.08,0,0,1,.47-0.69,2.19,2.19,0,0,1,.72-0.46,2.59,2.59,0,0,1,1.83,0,2.19,2.19,0,0,1,.72.46,2.09,2.09,0,0,1,.47.69,2.22,2.22,0,0,1,.17.86,2.27,2.27,0,0,1-.16.86,2.06,2.06,0,0,1-.46.69,2.16,2.16,0,0,1-.71.46,2.68,2.68,0,0,1-1.86,0" transform="translate(-25.93 -22.66)"/><path d="M94.34,99.12H92V94.65a0.25,0.25,0,0,0-.26-0.24H91.57a0.25,0.25,0,0,0-.26.24V99.5a0.25,0.25,0,0,0,.26.24h2.77a0.25,0.25,0,0,0,.26-0.24V99.36a0.25,0.25,0,0,0-.26-0.24" transform="translate(-25.93 -22.66)"/><path d="M99.74,94.41H99.58a0.26,0.26,0,0,0-.26.24v3a2.88,2.88,0,0,1-.06.58,1.33,1.33,0,0,1-.23.51,1.24,1.24,0,0,1-.46.38,1.88,1.88,0,0,1-.82.15,1.84,1.84,0,0,1-.83-0.15,1.27,1.27,0,0,1-.46-0.38,1.3,1.3,0,0,1-.22-0.51,2.93,2.93,0,0,1-.06-0.57v-3a0.25,0.25,0,0,0-.26-0.24H95.74a0.26,0.26,0,0,0-.26.24v3a3.05,3.05,0,0,0,.11.83,1.85,1.85,0,0,0,.39.72,1.9,1.9,0,0,0,.72.49,3.2,3.2,0,0,0,2.09,0,1.89,1.89,0,0,0,.72-0.49,1.84,1.84,0,0,0,.39-0.72,3,3,0,0,0,.11-0.83v-3a0.25,0.25,0,0,0-.26-0.24" transform="translate(-25.93 -22.66)"/><path d="M105.06,94.41h-3.73a0.25,0.25,0,0,0-.26.24v0.14a0.25,0.25,0,0,0,.26.24h1.52V99.5a0.26,0.26,0,0,0,.26.24h0.16a0.26,0.26,0,0,0,.26-0.24V95h1.52a0.25,0.25,0,0,0,.26-0.24V94.65a0.25,0.25,0,0,0-.26-0.24" transform="translate(-25.93 -22.66)"/><path d="M106.88,94.41h-0.16a0.26,0.26,0,0,0-.26.24V99.5a0.26,0.26,0,0,0,.26.24h0.16a0.26,0.26,0,0,0,.26-0.24V94.65a0.26,0.26,0,0,0-.26-0.24" transform="translate(-25.93 -22.66)"/><path d="M113.76,95.06a2.88,2.88,0,0,0-.94-0.58,3.42,3.42,0,0,0-2.36,0,2.88,2.88,0,0,0-.94.58,2.68,2.68,0,0,0-.62.89,2.94,2.94,0,0,0,0,2.24,2.67,2.67,0,0,0,.62.89,2.86,2.86,0,0,0,.94.59,3.39,3.39,0,0,0,2.35,0,2.88,2.88,0,0,0,.94-0.59,2.69,2.69,0,0,0,.62-0.89,2.93,2.93,0,0,0,0-2.24,2.67,2.67,0,0,0-.62-0.89m-3,4a2.17,2.17,0,0,1-.71-0.46,2.07,2.07,0,0,1-.46-0.69,2.26,2.26,0,0,1-.16-0.86,2.22,2.22,0,0,1,.17-0.86,2.08,2.08,0,0,1,.47-0.69,2.2,2.2,0,0,1,.72-0.46,2.59,2.59,0,0,1,1.83,0,2.19,2.19,0,0,1,.72.46,2.09,2.09,0,0,1,.47.69,2.21,2.21,0,0,1,.17.86,2.27,2.27,0,0,1-.16.86,2.06,2.06,0,0,1-.46.69,2.15,2.15,0,0,1-.71.46,2.68,2.68,0,0,1-1.86,0" transform="translate(-25.93 -22.66)"/><path d="M120.58,94.41h-0.16a0.25,0.25,0,0,0-.26.24v3.94l-3.32-4.09a0.28,0.28,0,0,0-.21-0.1H116.4a0.26,0.26,0,0,0-.27.24V99.5a0.26,0.26,0,0,0,.27.24h0.16a0.25,0.25,0,0,0,.26-0.24V95.55l3.31,4.09a0.27,0.27,0,0,0,.21.1h0.24a0.25,0.25,0,0,0,.26-0.24V94.65a0.25,0.25,0,0,0-.26-0.24" transform="translate(-25.93 -22.66)"/><path d="M125.49,97.25a2.55,2.55,0,0,0-.57-0.29l-0.64-.21-0.46-.16a1.46,1.46,0,0,1-.35-0.19,0.79,0.79,0,0,1-.23-0.25,0.72,0.72,0,0,1-.08-0.36,0.74,0.74,0,0,1,.09-0.38,0.84,0.84,0,0,1,.26-0.27A1.27,1.27,0,0,1,123.9,95a1.65,1.65,0,0,1,1,.05,1.12,1.12,0,0,1,.43.3,0.27,0.27,0,0,0,.18.09,0.28,0.28,0,0,0,.2-0.06l0.13-.1a0.23,0.23,0,0,0,0-.34,1.77,1.77,0,0,0-.69-0.47,2.49,2.49,0,0,0-1.56-.06,1.94,1.94,0,0,0-.6.29,1.46,1.46,0,0,0-.42.48,1.33,1.33,0,0,0-.16.65,1.41,1.41,0,0,0,.13.63,1.34,1.34,0,0,0,.37.45,2.12,2.12,0,0,0,.53.3c0.19,0.07.39,0.14,0.62,0.21l0.5,0.16a1.73,1.73,0,0,1,.39.2,0.94,0.94,0,0,1,.26.26,0.61,0.61,0,0,1,.09.34A0.79,0.79,0,0,1,125,99a1.23,1.23,0,0,1-.38.18,1.82,1.82,0,0,1-1.14-.06,1.55,1.55,0,0,1-.56-0.36,0.28,0.28,0,0,0-.37,0l-0.13.1a0.23,0.23,0,0,0,0,.35,2.2,2.2,0,0,0,.76.5,2.69,2.69,0,0,0,1,.18,2.47,2.47,0,0,0,.69-0.1,1.78,1.78,0,0,0,.6-0.3A1.52,1.52,0,0,0,125.9,99a1.37,1.37,0,0,0,.16-0.66,1.29,1.29,0,0,0-.15-0.64,1.36,1.36,0,0,0-.42-0.45" transform="translate(-25.93 -22.66)"/></svg>