<svg id="Layer_2" data-name="Layer 2" xmlns="http://www.w3.org/2000/svg" viewBox="0 0 98.43 77.28"><defs><style>.cls-1{fill:#136878;}</style></defs><title>piggy</title><path class="cls-1" d="M640.69,1222.9a10.36,10.36,0,0,0-4.08,2.57,9.24,9.24,0,0,0-4.53,0,10.18,10.18,0,0,0-6.3,4.66c-7.29-7.25-18.18-12-30.53-12a48.16,48.16,0,0,0-9.61,1,22.72,22.72,0,0,0-23-7.35l4.17,16.24a32.49,32.49,0,0,0-8.93,11.76h-7.05v20.94h6.67a32.54,32.54,0,0,0,10.42,13.5l3.09,14.11h15.17l3-5.5a45.64,45.64,0,0,0,12.29,0l2.43,5.53h15.18l3-13.67c7.92-6,12.92-14.48,12.92-24a28.37,28.37,0,0,0-6.62-17.93,6.61,6.61,0,0,1,4.55-3.9,5.06,5.06,0,0,1,1.58-.17c0,0.11-.09.23-0.13,0.35-0.74,2.08-.5,5.29,1.18,7.07a4,4,0,0,0,2.95,1.27,4.52,4.52,0,0,0,1.32-.19,4.09,4.09,0,0,0,3-3c0.57-2.36-.72-5.13-2.23-6.57a6,6,0,0,0-.53-0.46,6.88,6.88,0,0,1,1.84-1,6.4,6.4,0,0,1,5.51.53l1.87-3a9.86,9.86,0,0,0-8.53-.87m-66,21.86a3.06,3.06,0,1,1,3.06-3.07,3.07,3.07,0,0,1-3.06,3.07m31.46-11.47c-3.16-2.27-12.9-2.21-16,.08l-2.09-2.84c4.29-3.17,15.79-3.24,20.13-.12Zm32.7,0.54a0.58,0.58,0,0,1-.74-0.11,4.18,4.18,0,0,1-.43-3.47,2.62,2.62,0,0,1,.13-0.33,3.16,3.16,0,0,1,.3.28,4.12,4.12,0,0,1,1.24,3.17,0.59,0.59,0,0,1-.51.46" transform="translate(-550.79 -1211.09)"/></svg>